<?xml version="1.0" encoding="UTF-8"?>
<svg width="1188px" height="735px" viewBox="0 0 1188 735" version="1.1" xmlns="http://www.w3.org/2000/svg" xmlns:xlink="http://www.w3.org/1999/xlink">
    <!-- Generator: Sketch 47 (45396) - http://www.bohemiancoding.com/sketch -->
    <title>Group 5</title>
    <desc>Created with Sketch.</desc>
    <defs>
        <polygon id="path-1" points="0 134 209 36 410 152 200 249"></polygon>
        <polygon id="path-2" points="0 122 209 24 410 140 200 237"></polygon>
        <polygon id="path-3" points="0 110 209 12 410 128 200 225"></polygon>
        <polygon id="path-4" points="0 98 209 2.84217094e-14 410 116 200 213"></polygon>
        <polygon id="path-5" points="0 122 209 24 410 140 200 237"></polygon>
        <polygon id="path-6" points="0 110 209 12 410 128 200 225"></polygon>
        <polygon id="path-7" points="0 98 209 0 410 116 200 213"></polygon>
        <polygon id="path-8" points="0 122 209 24 410 140 200 237"></polygon>
        <polygon id="path-9" points="0 110 209 12 410 128 200 225"></polygon>
        <polygon id="path-10" points="0 98 209 0 410 116 200 213"></polygon>
        <polygon id="path-11" points="0 110 209 12 410 128 200 225"></polygon>
        <polygon id="path-12" points="0 98 209 0 410 116 200 213"></polygon>
        <polygon id="path-13" points="0 110 209 12 410 128 200 225"></polygon>
        <polygon id="path-14" points="0 98 209 0 410 116 200 213"></polygon>
        <polygon id="path-15" points="0 122 209 24 410 140 200 237"></polygon>
        <polygon id="path-16" points="0 110 209 12 410 128 200 225"></polygon>
        <polygon id="path-17" points="0 98 209 0 410 116 200 213"></polygon>
        <polygon id="path-18" points="0 134 209 36 410 152 200 249"></polygon>
        <polygon id="path-19" points="0 122 209 24 410 140 200 237"></polygon>
        <polygon id="path-20" points="0 110 209 12 410 128 200 225"></polygon>
        <polygon id="path-21" points="0 98 209 2.84217094e-14 410 116 200 213"></polygon>
        <polygon id="path-22" points="0 122 209 24 410 140 200 237"></polygon>
        <polygon id="path-23" points="0 110 209 12 410 128 200 225"></polygon>
        <polygon id="path-24" points="0 98 209 0 410 116 200 213"></polygon>
    </defs>
    <g id="New-Landing-Page" stroke="none" stroke-width="1" fill="none" fill-rule="evenodd">
        <g id="Bootstrap" transform="translate(-12.000000, -265.000000)">
            <g id="Group-5" transform="translate(12.000000, 265.000000)">
                <g id="Group-6-Copy" transform="translate(0.000000, 112.000000)">
                    <g id="Group-Copy-5">
                        <g id="Rectangle-2-Copy-3">
                            <use fill="#FFFFFF" fill-rule="evenodd" xlink:href="#path-1"></use>
                            <path stroke="#34495E" stroke-width="1" d="M1.08152314,134.045112 L200.025076,248.437655 L408.914309,151.950724 L208.976049,36.5634687 L1.08152314,134.045112 Z"></path>
                        </g>
                        <g id="Rectangle-2-Copy-2">
                            <use fill="#FFFFFF" fill-rule="evenodd" xlink:href="#path-2"></use>
                            <path stroke="#34495E" stroke-width="1" d="M1.08152314,122.045112 L200.025076,236.437655 L408.914309,139.950724 L208.976049,24.5634687 L1.08152314,122.045112 Z"></path>
                        </g>
                        <g id="Rectangle-2-Copy">
                            <use fill="#FFFFFF" fill-rule="evenodd" xlink:href="#path-3"></use>
                            <path stroke="#34495E" stroke-width="1" d="M1.08152314,110.045112 L200.025076,224.437655 L408.914309,127.950724 L208.976049,12.5634687 L1.08152314,110.045112 Z"></path>
                        </g>
                        <g id="Rectangle-2">
                            <use fill="#FFFFFF" fill-rule="evenodd" xlink:href="#path-4"></use>
                            <path stroke="#34495E" stroke-width="1" d="M1.08152314,98.0451122 L200.025076,212.437655 L408.914309,115.950724 L208.976049,0.56346866 L1.08152314,98.0451122 Z"></path>
                        </g>
                    </g>
                    <g id="Group-2-Copy-3" transform="translate(36.000000, 36.000000)" stroke-width="4" stroke-linecap="round">
                        <path d="M0.5,70.5 L114.5,15.5" id="Line" stroke="#27AE60"></path>
                        <path d="M92.5,55.5 L206.5,0.5" id="Line" stroke="#BDC3C7"></path>
                        <path d="M82.5,93.5 L196.5,38.5" id="Line-Copy" stroke="#D35400"></path>
                        <path d="M204.5,65.5 L90.5,120.5" id="Line-Copy-4" stroke="#BDC3C7"></path>
                        <path d="M296.5,50.5 L182.5,105.5" id="Line-Copy-3" stroke="#BDC3C7"></path>
                        <path d="M286.5,88.5 L172.5,143.5" id="Line-Copy-2" stroke="#F39C12"></path>
                    </g>
                </g>
                <g id="Group-4" transform="translate(368.000000, 225.000000)">
                    <g id="Group-Copy-4" transform="translate(0.000000, 36.000000)">
                        <g id="Rectangle-2-Copy-2">
                            <use fill="#FFFFFF" fill-rule="evenodd" xlink:href="#path-5"></use>
                            <path stroke="#34495E" stroke-width="1" d="M1.08152314,122.045112 L200.025076,236.437655 L408.914309,139.950724 L208.976049,24.5634687 L1.08152314,122.045112 Z"></path>
                        </g>
                        <g id="Rectangle-2-Copy">
                            <use fill="#FFFFFF" fill-rule="evenodd" xlink:href="#path-6"></use>
                            <path stroke="#34495E" stroke-width="1" d="M1.08152314,110.045112 L200.025076,224.437655 L408.914309,127.950724 L208.976049,12.5634687 L1.08152314,110.045112 Z"></path>
                        </g>
                        <g id="Rectangle-2">
                            <use fill="#FFFFFF" fill-rule="evenodd" xlink:href="#path-7"></use>
                            <path stroke="#34495E" stroke-width="1" d="M1.08152314,98.0451122 L200.025076,212.437655 L408.914309,115.950724 L208.976049,0.56346866 L1.08152314,98.0451122 Z"></path>
                        </g>
                    </g>
                    <g id="Group-9">
                        <g id="Group">
                            <g id="Rectangle-2-Copy-2">
                                <use fill="#FFFFFF" fill-rule="evenodd" xlink:href="#path-8"></use>
                                <path stroke="#34495E" stroke-width="1" d="M1.08152314,122.045112 L200.025076,236.437655 L408.914309,139.950724 L208.976049,24.5634687 L1.08152314,122.045112 Z"></path>
                            </g>
                            <g id="Rectangle-2-Copy">
                                <use fill="#FFFFFF" fill-rule="evenodd" xlink:href="#path-9"></use>
                                <path stroke="#34495E" stroke-width="1" d="M1.08152314,110.045112 L200.025076,224.437655 L408.914309,127.950724 L208.976049,12.5634687 L1.08152314,110.045112 Z"></path>
                            </g>
                            <g id="Rectangle-2">
                                <use fill="#FFFFFF" fill-rule="evenodd" xlink:href="#path-10"></use>
                                <path stroke="#34495E" stroke-width="1" d="M1.08152314,98.0451122 L200.025076,212.437655 L408.914309,115.950724 L208.976049,0.56346866 L1.08152314,98.0451122 Z"></path>
                            </g>
                        </g>
                        <g id="Group-2" transform="translate(36.000000, 36.000000)" stroke-width="4" stroke-linecap="round">
                            <path d="M0.5,70.5 L114.5,15.5" id="Line" stroke="#27AE60"></path>
                            <path d="M92.5,55.5 L206.5,0.5" id="Line" stroke="#979797"></path>
                            <path d="M82.5,93.5 L196.5,38.5" id="Line-Copy" stroke="#D35400"></path>
                            <path d="M204.5,65.5 L90.5,120.5" id="Line-Copy-4" stroke="#979797"></path>
                            <path d="M296.5,50.5 L182.5,105.5" id="Line-Copy-3" stroke="#979797"></path>
                            <path d="M286.5,88.5 L172.5,143.5" id="Line-Copy-2" stroke="#F39C12"></path>
                        </g>
                    </g>
                </g>
                <g id="Group-7" transform="translate(475.000000, 510.000000)">
                    <g id="Group-Copy-2">
                        <g id="Rectangle-2-Copy">
                            <use fill="#FFFFFF" fill-rule="evenodd" xlink:href="#path-11"></use>
                            <path stroke="#34495E" stroke-width="1" d="M1.08152314,110.045112 L200.025076,224.437655 L408.914309,127.950724 L208.976049,12.5634687 L1.08152314,110.045112 Z"></path>
                        </g>
                        <g id="Rectangle-2">
                            <use fill="#FFFFFF" fill-rule="evenodd" xlink:href="#path-12"></use>
                            <path stroke="#34495E" stroke-width="1" d="M1.08152314,98.0451122 L200.025076,212.437655 L408.914309,115.950724 L208.976049,0.56346866 L1.08152314,98.0451122 Z"></path>
                        </g>
                    </g>
                    <g id="Group-2-Copy" transform="translate(36.000000, 36.000000)" stroke-width="4" stroke-linecap="round">
                        <path d="M0.5,70.5 L114.5,15.5" id="Line" stroke="#27AE60"></path>
                        <path d="M92.5,55.5 L206.5,0.5" id="Line" stroke="#BDC3C7"></path>
                        <path d="M82.5,93.5 L196.5,38.5" id="Line-Copy" stroke="#D35400"></path>
                        <path d="M204.5,65.5 L90.5,120.5" id="Line-Copy-4" stroke="#BDC3C7"></path>
                        <path d="M296.5,50.5 L182.5,105.5" id="Line-Copy-3" stroke="#BDC3C7"></path>
                        <path d="M286.5,88.5 L172.5,143.5" id="Line-Copy-2" stroke="#F39C12"></path>
                    </g>
                </g>
                <g id="Group-7-Copy" transform="translate(302.000000, 0.000000)">
                    <g id="Group-Copy-2">
                        <g id="Rectangle-2-Copy">
                            <use fill="#FFFFFF" fill-rule="evenodd" xlink:href="#path-13"></use>
                            <path stroke="#34495E" stroke-width="1" d="M1.08152314,110.045112 L200.025076,224.437655 L408.914309,127.950724 L208.976049,12.5634687 L1.08152314,110.045112 Z"></path>
                        </g>
                        <g id="Rectangle-2">
                            <use fill="#FFFFFF" fill-rule="evenodd" xlink:href="#path-14"></use>
                            <path stroke="#34495E" stroke-width="1" d="M1.08152314,98.0451122 L200.025076,212.437655 L408.914309,115.950724 L208.976049,0.56346866 L1.08152314,98.0451122 Z"></path>
                        </g>
                    </g>
                    <g id="Group-2-Copy" transform="translate(36.000000, 36.000000)" stroke-width="4" stroke-linecap="round">
                        <path d="M0.5,70.5 L114.5,15.5" id="Line" stroke="#27AE60"></path>
                        <path d="M92.5,55.5 L206.5,0.5" id="Line" stroke="#BDC3C7"></path>
                        <path d="M82.5,93.5 L196.5,38.5" id="Line-Copy" stroke="#D35400"></path>
                        <path d="M204.5,65.5 L90.5,120.5" id="Line-Copy-4" stroke="#BDC3C7"></path>
                        <path d="M296.5,50.5 L182.5,105.5" id="Line-Copy-3" stroke="#BDC3C7"></path>
                        <path d="M286.5,88.5 L172.5,143.5" id="Line-Copy-2" stroke="#F39C12"></path>
                    </g>
                </g>
                <g id="Group-8" transform="translate(77.000000, 413.000000)">
                    <g id="Group-Copy">
                        <g id="Rectangle-2-Copy-2">
                            <use fill="#FFFFFF" fill-rule="evenodd" xlink:href="#path-15"></use>
                            <path stroke="#34495E" stroke-width="1" d="M1.08152314,122.045112 L200.025076,236.437655 L408.914309,139.950724 L208.976049,24.5634687 L1.08152314,122.045112 Z"></path>
                        </g>
                        <g id="Rectangle-2-Copy">
                            <use fill="#FFFFFF" fill-rule="evenodd" xlink:href="#path-16"></use>
                            <path stroke="#34495E" stroke-width="1" d="M1.08152314,110.045112 L200.025076,224.437655 L408.914309,127.950724 L208.976049,12.5634687 L1.08152314,110.045112 Z"></path>
                        </g>
                        <g id="Rectangle-2">
                            <use fill="#FFFFFF" fill-rule="evenodd" xlink:href="#path-17"></use>
                            <path stroke="#34495E" stroke-width="1" d="M1.08152314,98.0451122 L200.025076,212.437655 L408.914309,115.950724 L208.976049,0.56346866 L1.08152314,98.0451122 Z"></path>
                        </g>
                    </g>
                    <g id="Group-2-Copy-2" transform="translate(36.000000, 36.000000)" stroke-width="4" stroke-linecap="round">
                        <path d="M0.5,70.5 L114.5,15.5" id="Line" stroke="#27AE60"></path>
                        <path d="M92.5,55.5 L206.5,0.5" id="Line" stroke="#BDC3C7"></path>
                        <path d="M82.5,93.5 L196.5,38.5" id="Line-Copy" stroke="#D35400"></path>
                        <path d="M204.5,65.5 L90.5,120.5" id="Line-Copy-4" stroke="#BDC3C7"></path>
                        <path d="M296.5,50.5 L182.5,105.5" id="Line-Copy-3" stroke="#BDC3C7"></path>
                        <path d="M286.5,88.5 L172.5,143.5" id="Line-Copy-2" stroke="#F39C12"></path>
                    </g>
                </g>
                <g id="Group-6" transform="translate(712.000000, 133.000000)">
                    <g id="Group-Copy-5">
                        <g id="Rectangle-2-Copy-3">
                            <use fill="#FFFFFF" fill-rule="evenodd" xlink:href="#path-18"></use>
                            <path stroke="#34495E" stroke-width="1" d="M1.08152314,134.045112 L200.025076,248.437655 L408.914309,151.950724 L208.976049,36.5634687 L1.08152314,134.045112 Z"></path>
                        </g>
                        <g id="Rectangle-2-Copy-2">
                            <use fill="#FFFFFF" fill-rule="evenodd" xlink:href="#path-19"></use>
                            <path stroke="#34495E" stroke-width="1" d="M1.08152314,122.045112 L200.025076,236.437655 L408.914309,139.950724 L208.976049,24.5634687 L1.08152314,122.045112 Z"></path>
                        </g>
                        <g id="Rectangle-2-Copy">
                            <use fill="#FFFFFF" fill-rule="evenodd" xlink:href="#path-20"></use>
                            <path stroke="#34495E" stroke-width="1" d="M1.08152314,110.045112 L200.025076,224.437655 L408.914309,127.950724 L208.976049,12.5634687 L1.08152314,110.045112 Z"></path>
                        </g>
                        <g id="Rectangle-2">
                            <use fill="#FFFFFF" fill-rule="evenodd" xlink:href="#path-21"></use>
                            <path stroke="#34495E" stroke-width="1" d="M1.08152314,98.0451122 L200.025076,212.437655 L408.914309,115.950724 L208.976049,0.56346866 L1.08152314,98.0451122 Z"></path>
                        </g>
                    </g>
                    <g id="Group-2-Copy-3" transform="translate(36.000000, 36.000000)" stroke-width="4" stroke-linecap="round">
                        <path d="M0.5,70.5 L114.5,15.5" id="Line" stroke="#27AE60"></path>
                        <path d="M92.5,55.5 L206.5,0.5" id="Line" stroke="#BDC3C7"></path>
                        <path d="M82.5,93.5 L196.5,38.5" id="Line-Copy" stroke="#D35400"></path>
                        <path d="M204.5,65.5 L90.5,120.5" id="Line-Copy-4" stroke="#BDC3C7"></path>
                        <path d="M296.5,50.5 L182.5,105.5" id="Line-Copy-3" stroke="#BDC3C7"></path>
                        <path d="M286.5,88.5 L172.5,143.5" id="Line-Copy-2" stroke="#F39C12"></path>
                    </g>
                </g>
                <g id="Group-3" transform="translate(778.000000, 380.000000)">
                    <g id="Group-Copy-3">
                        <g id="Rectangle-2-Copy-2">
                            <use fill="#FFFFFF" fill-rule="evenodd" xlink:href="#path-22"></use>
                            <path stroke="#34495E" stroke-width="1" d="M1.08152314,122.045112 L200.025076,236.437655 L408.914309,139.950724 L208.976049,24.5634687 L1.08152314,122.045112 Z"></path>
                        </g>
                        <g id="Rectangle-2-Copy">
                            <use fill="#FFFFFF" fill-rule="evenodd" xlink:href="#path-23"></use>
                            <path stroke="#34495E" stroke-width="1" d="M1.08152314,110.045112 L200.025076,224.437655 L408.914309,127.950724 L208.976049,12.5634687 L1.08152314,110.045112 Z"></path>
                        </g>
                        <g id="Rectangle-2">
                            <use fill="#FFFFFF" fill-rule="evenodd" xlink:href="#path-24"></use>
                            <path stroke="#34495E" stroke-width="1" d="M1.08152314,98.0451122 L200.025076,212.437655 L408.914309,115.950724 L208.976049,0.56346866 L1.08152314,98.0451122 Z"></path>
                        </g>
                    </g>
                    <g id="Group-2-Copy-4" transform="translate(36.000000, 36.000000)" stroke-width="4" stroke-linecap="round">
                        <path d="M0.5,70.5 L114.5,15.5" id="Line" stroke="#27AE60"></path>
                        <path d="M92.5,55.5 L206.5,0.5" id="Line" stroke="#BDC3C7"></path>
                        <path d="M82.5,93.5 L196.5,38.5" id="Line-Copy" stroke="#D35400"></path>
                        <path d="M204.5,65.5 L90.5,120.5" id="Line-Copy-4" stroke="#BDC3C7"></path>
                        <path d="M296.5,50.5 L182.5,105.5" id="Line-Copy-3" stroke="#BDC3C7"></path>
                        <path d="M286.5,88.5 L172.5,143.5" id="Line-Copy-2" stroke="#F39C12"></path>
                    </g>
                </g>
            </g>
        </g>
    </g>
</svg>