<?xml version="1.0" encoding="UTF-8"?>
<svg width="374px" height="419px" viewBox="0 0 374 419" version="1.1" xmlns="http://www.w3.org/2000/svg" xmlns:xlink="http://www.w3.org/1999/xlink">
    <!-- Generator: Sketch 43.2 (39069) - http://www.bohemiancoding.com/sketch -->
    <title>Group 6</title>
    <desc>Created with Sketch.</desc>
    <defs>
        <path d="M35.5722274,1.38918411 C36.3607645,0.621958911 37.8977023,0 38.9917458,0 L106.008254,0 C107.108265,0 108,0.887626648 108,1.99165296 L108,137.008347 C108,138.108307 107.098773,139 106.009891,139 L1.99010877,139 C0.891002048,139 0,138.109559 0,137.000189 L0,37.9998112 C0,36.895346 0.642204285,35.3751526 1.42777256,34.6108159 L35.5722274,1.38918411 Z" id="path-1"></path>
        <polygon id="path-2" points="37 0 37 36 0 36"></polygon>
        <path d="M35.5722274,1.38918411 C36.3607645,0.621958911 37.8977023,0 38.9917458,0 L106.008254,0 C107.108265,0 108,0.887626648 108,1.99165296 L108,137.008347 C108,138.108307 107.098773,139 106.009891,139 L1.99010877,139 C0.891002048,139 0,138.109559 0,137.000189 L0,37.9998112 C0,36.895346 0.642204285,35.3751526 1.42777256,34.6108159 L35.5722274,1.38918411 Z" id="path-3"></path>
        <polygon id="path-4" points="37 0 37 36 0 36"></polygon>
        <polygon id="path-5" points="37 0 108 0 108 139 0 139 0 36"></polygon>
        <polygon id="path-6" points="37 0 37 36 0 36"></polygon>
        <path d="M35.5722274,1.38918411 C36.3607645,0.621958911 37.8977023,0 38.9917458,0 L106.008254,0 C107.108265,0 108,0.887626648 108,1.99165296 L108,137.008347 C108,138.108307 107.098773,139 106.009891,139 L1.99010877,139 C0.891002048,139 0,138.109559 0,137.000189 L0,37.9998112 C0,36.895346 0.642204285,35.3751526 1.42777256,34.6108159 L35.5722274,1.38918411 Z" id="path-7"></path>
        <polygon id="path-8" points="37 0 37 36 0 36"></polygon>
    </defs>
    <g id="New-Landing-Page" stroke="none" stroke-width="1" fill="none" fill-rule="evenodd">
        <g id="Graphics" transform="translate(-111.000000, -86.000000)">
            <g id="Group-6" transform="translate(110.000000, 86.000000)">
                <g id="Group-3">
                    <g id="Group" transform="translate(55.000000, 69.500000) scale(-1, 1) translate(-55.000000, -69.500000) translate(1.000000, 0.000000)">
                        <g id="Rectangle-4">
                            <use fill="#FFFFFF" fill-rule="evenodd" xlink:href="#path-1"></use>
                            <path stroke="#979797" stroke-width="2" d="M36.2695824,2.10591004 C36.8698578,1.52185828 38.1559761,1 38.9917458,1 L106.008254,1 C106.557713,1 107,1.44164259 107,1.99165296 L107,137.008347 C107,137.55188 106.550638,138 106.009891,138 L1.99010877,138 C1.44230848,138 1,137.556288 1,137.000189 L1,37.9998112 C1,37.1665608 1.53215913,35.904484 2.12512752,35.3275418 L36.2695824,2.10591004 L36.2695824,2.10591004 Z"></path>
                        </g>
                        <g id="Triangle">
                            <use fill="#FFFFFF" fill-rule="evenodd" xlink:href="#path-2"></use>
                            <path stroke="#979797" stroke-width="2" d="M36,2.36820643 L36,35 L2.46176772,35 L36,2.36820643 Z"></path>
                        </g>
                    </g>
                    <g id="Group-2" transform="translate(54.391891, 69.205879) rotate(29.000000) translate(-54.391891, -69.205879) translate(6.891891, 42.705879)" stroke-width="4" stroke-linecap="round">
                        <path d="M0.159196268,25.9559714 L36.4559453,5.70663202" id="Line" stroke="#27AE60"></path>
                        <path d="M29.4513095,20.4334243 L65.7480585,0.184084904" id="Line" stroke="#979797"></path>
                        <path d="M26.2673841,34.423877 L62.5641331,14.1745376" id="Line-Copy" stroke="#D35400"></path>
                        <path d="M65.1112734,24.1151224 L28.8145244,44.3644618" id="Line-Copy-4" stroke="#979797"></path>
                        <path d="M94.4033866,18.5925753 L58.1066377,38.8419147" id="Line-Copy-3" stroke="#979797"></path>
                        <path d="M91.2194613,32.583028 L54.9227123,52.8323674" id="Line-Copy-2" stroke="#F39C12"></path>
                    </g>
                </g>
                <g id="Group-4" transform="translate(133.000000, 0.000000)">
                    <g id="Group-Copy" transform="translate(55.000000, 69.500000) scale(-1, 1) translate(-55.000000, -69.500000) translate(1.000000, 0.000000)">
                        <g id="Rectangle-4">
                            <use fill="#FFFFFF" fill-rule="evenodd" xlink:href="#path-3"></use>
                            <path stroke="#979797" stroke-width="2" d="M36.2695824,2.10591004 C36.8698578,1.52185828 38.1559761,1 38.9917458,1 L106.008254,1 C106.557713,1 107,1.44164259 107,1.99165296 L107,137.008347 C107,137.55188 106.550638,138 106.009891,138 L1.99010877,138 C1.44230848,138 1,137.556288 1,137.000189 L1,37.9998112 C1,37.1665608 1.53215913,35.904484 2.12512752,35.3275418 L36.2695824,2.10591004 L36.2695824,2.10591004 Z"></path>
                        </g>
                        <g id="Triangle">
                            <use fill="#FFFFFF" fill-rule="evenodd" xlink:href="#path-4"></use>
                            <path stroke="#979797" stroke-width="2" d="M36,2.36820643 L36,35 L2.46176772,35 L36,2.36820643 Z"></path>
                        </g>
                    </g>
                    <g id="Group-2-Copy" transform="translate(54.391891, 69.205879) scale(-1, 1) rotate(29.000000) translate(-54.391891, -69.205879) translate(6.891891, 42.705879)" stroke-width="4" stroke-linecap="round">
                        <path d="M0.159196268,25.9559714 L36.4559453,5.70663202" id="Line" stroke="#27AE60"></path>
                        <path d="M29.4513095,20.4334243 L65.7480585,0.184084904" id="Line" stroke="#979797"></path>
                        <path d="M26.2673841,34.423877 L62.5641331,14.1745376" id="Line-Copy" stroke="#D35400"></path>
                        <path d="M65.1112734,24.1151224 L28.8145244,44.3644618" id="Line-Copy-4" stroke="#979797"></path>
                        <path d="M94.4033866,18.5925753 L58.1066377,38.8419147" id="Line-Copy-3" stroke="#979797"></path>
                        <path d="M91.2194613,32.583028 L54.9227123,52.8323674" id="Line-Copy-2" stroke="#F39C12"></path>
                    </g>
                </g>
                <g id="Group-4-Copy" transform="translate(134.000000, 280.000000)">
                    <g id="Group-Copy" transform="translate(54.000000, 69.500000) scale(-1, 1) translate(-54.000000, -69.500000) ">
                        <g id="Rectangle-4">
                            <use fill="#FFFFFF" fill-rule="evenodd" xlink:href="#path-5"></use>
                            <path stroke="#979797" stroke-width="2" d="M37.4062122,1 L107,1 L107,138 L1,138 L1,36.4222605 L37.4062122,1 Z"></path>
                        </g>
                        <g id="Triangle">
                            <use fill="#FFFFFF" fill-rule="evenodd" xlink:href="#path-6"></use>
                            <path stroke="#979797" stroke-width="2" d="M36,2.36820643 L36,35 L2.46176772,35 L36,2.36820643 Z"></path>
                        </g>
                    </g>
                    <path d="M17.4110267,75.3244904 L90.8790821,34.6004823" id="Line" stroke="#27AE60" stroke-width="4" stroke-linecap="round" transform="translate(54.037542, 54.845965) scale(-1, 1) rotate(29.000000) translate(-54.037542, -54.845965) "></path>
                    <path d="M17.3896424,87.554168 L90.593268,46.6743989" id="Line-Copy" stroke="#D35400" stroke-width="4" stroke-linecap="round" transform="translate(53.964393, 67.152659) scale(-1, 1) rotate(29.000000) translate(-53.964393, -67.152659) "></path>
                    <path d="M90.835504,60.6117524 L17.3674486,101.33576" id="Line-Copy-4" stroke="#979797" stroke-width="4" stroke-linecap="round" transform="translate(54.075055, 81.080906) scale(-1, 1) rotate(29.000000) translate(-54.075055, -81.080906) "></path>
                    <path d="M90.4960022,72.6995535 L17.0279468,113.423562" id="Line-Copy-2" stroke="#F39C12" stroke-width="4" stroke-linecap="round" transform="translate(53.917838, 93.173271) scale(-1, 1) rotate(29.000000) translate(-53.917838, -93.173271) "></path>
                </g>
                <g id="Group-5" transform="translate(266.000000, 0.000000)">
                    <g id="Group-Copy-2" transform="translate(55.000000, 69.500000) scale(-1, 1) translate(-55.000000, -69.500000) translate(1.000000, 0.000000)">
                        <g id="Rectangle-4">
                            <use fill="#FFFFFF" fill-rule="evenodd" xlink:href="#path-7"></use>
                            <path stroke="#979797" stroke-width="2" d="M36.2695824,2.10591004 C36.8698578,1.52185828 38.1559761,1 38.9917458,1 L106.008254,1 C106.557713,1 107,1.44164259 107,1.99165296 L107,137.008347 C107,137.55188 106.550638,138 106.009891,138 L1.99010877,138 C1.44230848,138 1,137.556288 1,137.000189 L1,37.9998112 C1,37.1665608 1.53215913,35.904484 2.12512752,35.3275418 L36.2695824,2.10591004 L36.2695824,2.10591004 Z"></path>
                        </g>
                        <g id="Triangle">
                            <use fill="#FFFFFF" fill-rule="evenodd" xlink:href="#path-8"></use>
                            <path stroke="#979797" stroke-width="2" d="M36,2.36820643 L36,35 L2.46176772,35 L36,2.36820643 Z"></path>
                        </g>
                    </g>
                    <g id="Group-2-Copy-2" transform="translate(54.391891, 69.205879) rotate(29.000000) translate(-54.391891, -69.205879) translate(6.891891, 42.705879)" stroke-width="4" stroke-linecap="round">
                        <path d="M0.159196268,25.9559714 L36.4559453,5.70663202" id="Line" stroke="#27AE60"></path>
                        <path d="M29.4513095,20.4334243 L65.7480585,0.184084904" id="Line" stroke="#979797"></path>
                        <path d="M26.2673841,34.423877 L62.5641331,14.1745376" id="Line-Copy" stroke="#D35400"></path>
                        <path d="M65.1112734,24.1151224 L28.8145244,44.3644618" id="Line-Copy-4" stroke="#979797"></path>
                        <path d="M94.4033866,18.5925753 L58.1066377,38.8419147" id="Line-Copy-3" stroke="#979797"></path>
                        <path d="M91.2194613,32.583028 L54.9227123,52.8323674" id="Line-Copy-2" stroke="#F39C12"></path>
                    </g>
                </g>
                <path d="M55,140.5 L55,208.5" id="Line" stroke="#979797" stroke-width="4" stroke-linecap="round"></path>
                <path d="M190,140.5 L190,208.5" id="Line-Copy-5" stroke="#979797" stroke-width="4" stroke-linecap="round"></path>
                <path d="M190,210.5 L190,278.5" id="Line-Copy-7" stroke="#979797" stroke-width="4" stroke-linecap="round"></path>
                <path d="M323,140.5 L323,209" id="Line-Copy-6" stroke="#979797" stroke-width="4" stroke-linecap="round"></path>
                <path d="M55,209 L322,209" id="Line" stroke="#979797" stroke-width="4" stroke-linecap="round"></path>
            </g>
        </g>
    </g>
</svg>